<svg xmlns="http://www.w3.org/2000/svg" viewBox="0 0 2904 2904">
  <rect x="20" y="20" width="2864" height="2864" rx="560" fill="#0d0f0e" stroke="#2b322e" stroke-width="24"/>
  <!-- P (light) -->
  <g transform="translate(292,2150) scale(1,-1)" fill="#ededed"><path d="M1220 873Q1220 737 1157 637Q1094 537 983.5 482.5Q873 428 729 428Q619 428 537.5 452.5Q456 477 389 528L393 542Q440 510 482 491Q524 472 564.5 464Q605 456 644 456Q729 456 797 506Q865 556 905.5 650Q946 744 946 878Q946 1040 896 1152.5Q846 1265 760 1323Q674 1381 566 1381L480 1381L480 55Q480 43 488.5 36.5Q497 30 516 27L602 14Q607 12 609.5 10.5Q612 9 612 6Q612 4 609.5 2Q607 0 603 0L78 0Q73 0 70.5 2Q68 4 68 7Q68 12 79 14L166 27Q183 30 191.5 37Q200 44 200 54L200 1342Q200 1355 191.5 1362.5Q183 1370 168 1373L77 1387Q68 1387 68 1393Q68 1397 70.5 1398.5Q73 1400 78 1400L565 1400Q760 1400 907.5 1334.5Q1055 1269 1137.5 1149.5Q1220 1030 1220 873Z"/></g>
  <!-- moat: bg halo carving a hairline gap around C where it overlaps P -->
  <g transform="translate(1303,2150) scale(1,-1)">
    <path d="M1235 412Q1226 319 1183 238Q1140 157 1070 97Q1000 37 906 3.5Q812 -30 702 -30Q502 -30 356.5 59Q211 148 132.5 307.5Q54 467 54 680Q54 845 102 982Q150 1119 238.5 1218Q327 1317 449.5 1371.5Q572 1426 721 1426Q816 1426 881 1405Q946 1384 981.5 1362Q1017 1340 1025 1340Q1037 1340 1059 1361.5Q1081 1383 1102.5 1404.5Q1124 1426 1129 1426Q1134 1426 1137 1422.5Q1140 1419 1141 1410L1240 1016Q1242 1009 1241 1004Q1240 999 1233 997Q1227 996 1222.5 999.5Q1218 1003 1214 1012Q1160 1153 1092 1237.5Q1024 1322 945.5 1360Q867 1398 780 1398Q689 1398 612 1357Q535 1316 477.5 1237Q420 1158 388 1043Q356 928 356 779Q356 548 418 393Q480 238 589 160.5Q698 83 841 83Q990 83 1090.5 170.5Q1191 258 1223 414Q1225 419 1226.5 421.5Q1228 424 1231 424Q1234 424 1235 420.5Q1236 417 1235 412Z" fill="#0d0f0e" stroke="#0d0f0e" stroke-width="78" stroke-linejoin="round"/>
  </g>
  <!-- C (accent) on top -->
  <g transform="translate(1303,2150) scale(1,-1)" fill="#62cf9f"><path d="M1235 412Q1226 319 1183 238Q1140 157 1070 97Q1000 37 906 3.5Q812 -30 702 -30Q502 -30 356.5 59Q211 148 132.5 307.5Q54 467 54 680Q54 845 102 982Q150 1119 238.5 1218Q327 1317 449.5 1371.5Q572 1426 721 1426Q816 1426 881 1405Q946 1384 981.5 1362Q1017 1340 1025 1340Q1037 1340 1059 1361.5Q1081 1383 1102.5 1404.5Q1124 1426 1129 1426Q1134 1426 1137 1422.5Q1140 1419 1141 1410L1240 1016Q1242 1009 1241 1004Q1240 999 1233 997Q1227 996 1222.5 999.5Q1218 1003 1214 1012Q1160 1153 1092 1237.5Q1024 1322 945.5 1360Q867 1398 780 1398Q689 1398 612 1357Q535 1316 477.5 1237Q420 1158 388 1043Q356 928 356 779Q356 548 418 393Q480 238 589 160.5Q698 83 841 83Q990 83 1090.5 170.5Q1191 258 1223 414Q1225 419 1226.5 421.5Q1228 424 1231 424Q1234 424 1235 420.5Q1236 417 1235 412Z"/></g>
</svg>
